{"title":"The.Two.Faces.of.January.2014.WEBRip.480p.x264.AAC-VYTO [P2PDL]","uid":10938884,"size":387422908,"categoryP":"video","categoryS":"movies","magnet":"?xt=urn:btih:d931b7f864916e9e9c5c88635903ed6eb03b59a3&amp;dn=The.Two.Faces.of.January.2014.WEBRip.480p.x264.AAC-VYTO+%5BP2PDL%5D&amp;tr=udp%3A%2F%2Ftracker.openbittorrent.com%3A80&amp;tr=udp%3A%2F%2Fopen.demonii.com%3A1337&amp;tr=udp%3A%2F%2Ftracker.coppersurfer.tk%3A6969&amp;tr=udp%3A%2F%2Fexodus.desync.com%3A6969","seeders":0,"leechers":1,"uploader":"ValidusVyto","files":-1,"time":1409479177,"description":"____    ____ ____    ____ .___________.  ______   \n     /   /      /   / |           | /  __    \n    /   /      /   /  `---|  |----`|  |  |  | \n        /     _    _/       |  |     |  |  |  | \n       /        |  |         |  |     |  `--'  | \n    __/         |__|         |__|      ______/  \n                                                  \nPresenting Small Encodes with quality for years!\n                                                                                                   \n                                                                                                   \n\nThe.Two.Faces.of.January.2014.WEBRip.480p.x264.AAC-VYTO\n\n\nGenre: Thriller &lt;a href=&quot;\nhttp://www.imdb.com/title/tt1976000/&quot; rel=&quot;nofollow&quot; target=&quot;_NEW&quot;&gt;\nhttp://www.imdb.com/title/tt1976000/&lt;/a&gt;\n\n\nGeneral\nFormat                         : MPEG-4\nFile size                      : 364 MiB\nDuration                       : 1h 36mn\nOverall bit rate               : 525 Kbps\n\nVideo\nFormat                         : AVC\nBit rate                       : 480 Kbps\nWidth                          : 720 pixels\nHeight                         : 304 pixels\nDisplay aspect ratio           : 2.40:1\nFrame rate                     : 23.976 fps\nBit depth                      : 8 bits\nStream size                    : 333 MiB (91%)\nWriting library                : x264 core 142 r2389 956c8d8\n\nAudio\nFormat                         : AAC\nBit rate mode                  : Variable\nBit rate                       : 40.0 Kbps\nChannel(s)                     : 2 channels\nChannel positions              : Front: L R\nSampling rate                  : 48.0 KHz\nStream size                    : 27.7 MiB (8%)\nLanguage                       : English\n\nSubtitle                       : Yes (English)\n &lt;a href=&quot;\nhttp://ultraimg.com/images/157a73.png&quot; rel=&quot;nofollow&quot; target=&quot;_NEW&quot;&gt;\nhttp://ultraimg.com/images/157a73.png&lt;/a&gt; &lt;a href=&quot;\nhttp://ultraimg.com/images/2a47f5.png&quot; rel=&quot;nofollow&quot; target=&quot;_NEW&quot;&gt;\nhttp://ultraimg.com/images/2a47f5.png&lt;/a&gt; &lt;a href=&quot;\nhttp://ultraimg.com/images/3f3d63.png&quot; rel=&quot;nofollow&quot; target=&quot;_NEW&quot;&gt;\nhttp://ultraimg.com/images/3f3d63.png&lt;/a&gt; &lt;a href=&quot;\nhttp://ultraimg.com/images/4200cf.png&quot; rel=&quot;nofollow&quot; target=&quot;_NEW&quot;&gt;\nhttp://ultraimg.com/images/4200cf.png&lt;/a&gt; &lt;a href=&quot;\nhttp://ultraimg.com/images/52c4f3.png&quot; rel=&quot;nofollow&quot; target=&quot;_NEW&quot;&gt;\nhttp://ultraimg.com/images/52c4f3.png&lt;/a&gt; &lt;a href=&quot;\nhttp://ultraimg.com/images/6ad581.png&quot; rel=&quot;nofollow&quot; target=&quot;_NEW&quot;&gt;\nhttp://ultraimg.com/images/6ad581.png&lt;/a&gt; &lt;a href=&quot;\nhttp://ultraimg.com/images/7683f7.png&quot; rel=&quot;nofollow&quot; target=&quot;_NEW&quot;&gt;\nhttp://ultraimg.com/images/7683f7.png&lt;/a&gt; &lt;a href=&quot;\nhttp://ultraimg.com/images/804380.png&quot; rel=&quot;nofollow&quot; target=&quot;_NEW&quot;&gt;\nhttp://ultraimg.com/images/804380.png&lt;/a&gt; &lt;a href=&quot;\nhttp://ultraimg.com/images/997c42.png&quot; rel=&quot;nofollow&quot; target=&quot;_NEW&quot;&gt;\nhttp://ultraimg.com/images/997c42.png&lt;/a&gt; &lt;a href=&quot;\nhttp://ultraimg.com/images/10a3eb2.png&quot; rel=&quot;nofollow&quot; target=&quot;_NEW&quot;&gt;\nhttp://ultraimg.com/images/10a3eb2.png&lt;/a&gt;\n\n----------------------------------------------------------------------------------------------------\n\n\nRecommend to you to use latest version of VLC player. Install K-Lite Codec Pack or shark007 codecs\nin case of any kind of problem in playback (For non-VLC Media Player users). Alternatively, install\nCore AVC codecs, the fastest decoder that there is coupled with Community Center Codec Pack and play\non Windows Media Player Classic. Check sample to be sure.\n\nEncoder Notes:Looking For Early Access To Anything You Can Provide DVDScr, R5, DVDR, BluRay, Direct\nAudio, Music Releases and Seedboxes. We require dedicated servers, so as to do more \nand fast releases of movies.\n\nFind us @ P2PDL\nSearch it!","torrent":{"xt":"urn:btih:d931b7f864916e9e9c5c88635903ed6eb03b59a3","amp;dn":"The.Two.Faces.of.January.2014.WEBRip.480p.x264.AAC-VYTO+%5BP2PDL%5D","amp;tr":["udp%3A%2F%2Ftracker.openbittorrent.com%3A80","udp%3A%2F%2Fopen.demonii.com%3A1337","udp%3A%2F%2Ftracker.coppersurfer.tk%3A6969","udp%3A%2F%2Fexodus.desync.com%3A6969"],"infoHash":"d931b7f864916e9e9c5c88635903ed6eb03b59a3","infoHashBuffer":{"type":"Buffer","data":[217,49,183,248,100,145,110,158,156,92,136,99,89,3,237,110,176,59,89,163]},"announce":[],"urlList":[]}}